<svg xmlns="http://www.w3.org/2000/svg" width="161" height="55" fill="none"><path fill="#52ADD7" d="M12.88 29.485a15 15 0 0 0-1.67-.877 15 15 0 0 0-1.63-.618 5.8 5.8 0 0 0-1.766-.288q-.701 0-1.118.22-.416.22-.417.74 0 .383.243.632.242.246.7.452.46.205 1.118.398c.441.13.938.282 1.495.465q1.32.412 2.387.907a7.4 7.4 0 0 1 1.818 1.164q.754.673 1.16 1.633.404.96.404 2.331 0 1.757-.634 2.948a5.3 5.3 0 0 1-1.67 1.907 7 7 0 0 1-2.344 1.03q-1.308.315-2.627.314-1.05.001-2.156-.164-1.106-.163-2.196-.465a19 19 0 0 1-2.103-.712A13.5 13.5 0 0 1 0 40.568l2.265-4.69q.943.603 1.968 1.07.862.413 1.956.74 1.09.329 2.225.328.863 0 1.2-.234a.72.72 0 0 0 .335-.616.9.9 0 0 0-.336-.7q-.335-.286-.93-.507a19 19 0 0 0-1.36-.439 28 28 0 0 1-1.631-.522q-1.268-.439-2.183-.946C2.9 33.712 2.394 33.33 2 32.9a4.1 4.1 0 0 1-.874-1.469Q.844 30.61.843 29.54q0-1.618.579-2.854a5.8 5.8 0 0 1 1.577-2.057 7 7 0 0 1 2.278-1.248 8.6 8.6 0 0 1 2.709-.425q1.051-.002 2.048.207.998.206 1.926.522.931.315 1.739.686.809.371 1.456.699zm21.968-6.365v19.476h-5.256V34.97h-6.416v7.627H17.92V23.12h5.256v7.186h6.416V23.12zm3.29 19.476V23.12h5.256v7.407l5.821-7.407h5.93l-6.955 8.725 7.439 10.752H49.59l-4.743-7.16-1.456 1.537v5.623zm25.227.274q-1.859 0-3.316-.588-1.456-.59-2.44-1.606a6.9 6.9 0 0 1-1.495-2.332 7.6 7.6 0 0 1-.512-2.77q0-1.564.499-2.964a6.9 6.9 0 0 1 1.482-2.442q.984-1.042 2.426-1.659t3.356-.616q1.888-.001 3.343.616t2.44 1.646a6.8 6.8 0 0 1 1.481 2.385c.334.907.5 1.85.5 2.84q0 .413-.04.837t-.095.753h-9.946c.053.77.333 1.32.835 1.66a2.9 2.9 0 0 0 1.643.508q.837-.001 1.578-.385.741-.383.983-1.07l4.34 1.261q-.865 1.728-2.657 2.827-1.791 1.1-4.405 1.1m2.262-9.025q-.134-1.041-.755-1.646-.62-.604-1.591-.603-.97 0-1.591.603-.622.605-.756 1.646zm14.151 9.024q-1.858 0-3.316-.588-1.456-.59-2.439-1.606a6.9 6.9 0 0 1-1.496-2.332 7.6 7.6 0 0 1-.512-2.77q0-1.564.5-2.964a6.9 6.9 0 0 1 1.481-2.442q.984-1.042 2.426-1.659t3.356-.616q1.888-.001 3.343.616t2.44 1.646a6.8 6.8 0 0 1 1.482 2.385 8.2 8.2 0 0 1 .499 2.84q0 .413-.04.837t-.095.753h-9.946c.053.77.333 1.32.835 1.66a2.9 2.9 0 0 0 1.643.508q.837-.001 1.578-.385.741-.383.983-1.07l4.34 1.261q-.865 1.728-2.657 2.827-1.787 1.1-4.405 1.1m2.265-9.025q-.133-1.041-.756-1.646-.621-.604-1.59-.603-.971 0-1.591.603-.622.605-.756 1.646zm16.709 9.024q-1.536 0-2.669-.615a4.24 4.24 0 0 1-1.752-1.797V53.08H89.21V28.168h4.447v2.167q.754-1.179 1.86-1.81t2.722-.632a6.16 6.16 0 0 1 4.688 2.111q.861.989 1.361 2.36t.5 2.963a9.6 9.6 0 0 1-.458 3.004q-.458 1.384-1.265 2.402a5.8 5.8 0 0 1-1.914 1.576 5.2 5.2 0 0 1-2.399.562m-1.778-4.389q.566 0 1.038-.247.472-.246.809-.686.336-.44.539-1.014c.135-.381.203-.796.203-1.234q0-1.371-.769-2.195-.769-.822-2.034-.823-1.431 0-2.426 1.482v2.496q.377.96 1.104 1.592.727.63 1.536.63m16.657 4.387q-1.858 0-3.316-.588-1.456-.59-2.44-1.606a6.95 6.95 0 0 1-1.495-2.332 7.6 7.6 0 0 1-.513-2.77q0-1.564.5-2.963a6.9 6.9 0 0 1 1.482-2.442q.983-1.041 2.426-1.66 1.442-.616 3.356-.616 1.887 0 3.343.616 1.454.617 2.439 1.646a6.8 6.8 0 0 1 1.482 2.386q.5 1.357.5 2.84 0 .412-.04.836a10 10 0 0 1-.095.753h-9.947c.053.77.333 1.32.835 1.66a2.9 2.9 0 0 0 1.644.508q.837-.001 1.578-.385.74-.383.983-1.07l4.339 1.261q-.865 1.728-2.656 2.827-1.788 1.1-4.405 1.1m2.265-9.025q-.134-1.041-.756-1.646-.622-.603-1.591-.602-.97 0-1.591.602-.622.605-.756 1.646zm16.793-1.236q-1.483 0-2.696.329-1.213.33-1.804 1.097v8.558h-5.122v-14.43h4.691v2.744c.502-.968 1.128-1.716 1.873-2.235q1.118-.782 2.413-.782.513.001.647.026v4.694z"/><path fill="#fff" d="M.791 51.469c-.05.56.325 1.07.973 1.07.618 0 .943-.46.943-.95 0-.669-.531-.86-1.041-1.04-.56-.19-1.406-.49-1.406-1.53 0-.86.581-1.541 1.554-1.541.885 0 1.493.65 1.485 1.49h-.727c.01-.49-.325-.82-.777-.82-.51 0-.806.349-.806.809 0 .63.55.83 1.052.99.64.21 1.395.49 1.395 1.52 0 1-.629 1.74-1.73 1.74-1.121 0-1.642-.832-1.642-1.74h.727zm4.04-.861c.087 1.09.915 1.931 2.046 1.931.845 0 1.543-.49 1.878-1.24h.759c-.434 1.181-1.417 1.913-2.635 1.913-1.583 0-2.8-1.221-2.8-2.862 0-1.35.972-2.872 2.8-2.872 2.035 0 2.772 1.72 2.762 3.13zm4.022-.67c-.206-1.11-1.041-1.79-1.976-1.79-1.034 0-1.869.75-2.046 1.79zm1.817-4.262h.728v7.404h-.727zm2.31 2.601h-.835v-.67h.835v-.11c0-1.07.708-1.821 1.915-1.821h.148v.67h-.148c-.216 0-1.189.018-1.189 1.15v.11h1.337v.67h-1.337v4.804h-.726zm5.032-2.601h.726v2.721c.344-.51.904-.92 1.74-.92 1.217 0 2.348.77 2.348 2.722v2.88H22.1V50.2c0-.4-.03-2.052-1.71-2.052-.748 0-1.652.39-1.652 1.931v3.002h-.726zm11.414 4.671c0 1.63-1.229 2.862-2.812 2.862s-2.811-1.232-2.811-2.862 1.218-2.872 2.811-2.872c1.594 0 2.812 1.242 2.812 2.872m-4.897 0c0 1.24.875 2.192 2.085 2.192s2.085-.95 2.085-2.192c0-1.24-.874-2.2-2.085-2.2s-2.085.96-2.085 2.2m6.241 1.122c-.05.56.326 1.07.973 1.07.618 0 .944-.46.944-.95 0-.669-.532-.86-1.042-1.04-.56-.19-1.405-.49-1.405-1.53 0-.86.578-1.541 1.553-1.541.886 0 1.493.65 1.485 1.49h-.726c.01-.49-.325-.82-.777-.82-.513 0-.806.349-.806.809 0 .63.55.83 1.051.99.64.21 1.396.49 1.396 1.52 0 1-.63 1.74-1.731 1.74-1.12 0-1.641-.832-1.641-1.74h.727zm4.11-3.192h-1.121v-.67h1.12v-1.931h.727v1.93h1.247v.67h-1.247v4.804h-.727zm3.263 2.331c.087 1.09.914 1.931 2.045 1.931.845 0 1.543-.49 1.879-1.24h.755c-.433 1.181-1.416 1.913-2.634 1.913-1.583 0-2.801-1.221-2.801-2.862 0-1.35.972-2.872 2.8-2.872 2.035 0 2.773 1.72 2.762 3.13zm4.019-.67c-.206-1.11-1.041-1.79-1.977-1.79-1.033 0-1.868.75-2.045 1.79zm7.314 3.142h-.687v-1h-.02a2.47 2.47 0 0 1-2.104 1.129c-1.602 0-2.87-1.221-2.87-2.902 0-1.28.943-2.832 2.851-2.832.441 0 1.435.07 2.085 1.081h.019v-2.88h.726zm-4.954-2.711c0 1.261.993 2.17 2.143 2.17 1.189 0 2.124-.941 2.124-2.162 0-1.261-.904-2.232-2.143-2.232-1.17.002-2.124.952-2.124 2.224m8.481-4.693h.727v5.344l2.536-3.413h.864l-2.084 2.74 2.222 2.733h-.933l-1.75-2.163-.855 1.122v1.04h-.727zm5.485 4.932c.09 1.09.914 1.931 2.045 1.931.845 0 1.543-.49 1.879-1.24h.758c-.433 1.181-1.416 1.913-2.635 1.913-1.582 0-2.8-1.221-2.8-2.862 0-1.35.972-2.872 2.8-2.872 2.035 0 2.772 1.72 2.762 3.13zm4.021-.67c-.206-1.11-1.04-1.79-1.976-1.79-1.033 0-1.869.75-2.046 1.79zm2.368.67c.09 1.09.914 1.931 2.045 1.931.846 0 1.544-.49 1.88-1.24h.758c-.434 1.181-1.417 1.913-2.635 1.913-1.583 0-2.801-1.221-2.801-2.862 0-1.35.973-2.872 2.801-2.872 2.035 0 2.772 1.72 2.761 3.13zm4.022-.67c-.206-1.11-1.041-1.79-1.977-1.79-1.033 0-1.868.75-2.045 1.79zm1.819-2.331h.687v.941h.018c.669-.95 1.612-1.07 2.104-1.07 1.886 0 2.862 1.5 2.862 2.89 0 1.63-1.23 2.84-2.88 2.84-1.309 0-1.858-.83-2.046-1.15h-.018V55h-.727zm.687 2.773c0 1.21.874 2.162 2.103 2.162 1.19 0 2.154-.941 2.154-2.181s-.933-2.211-2.133-2.211c-1.25-.003-2.124.998-2.124 2.23m6.565.228c.088 1.09.915 1.931 2.046 1.931.846 0 1.543-.49 1.879-1.24h.758c-.433 1.181-1.416 1.913-2.634 1.913-1.583 0-2.801-1.221-2.801-2.862 0-1.35.972-2.872 2.8-2.872 2.036 0 2.773 1.72 2.762 3.13zm4.02-.67c-.206-1.11-1.041-1.79-1.976-1.79-1.034 0-1.869.75-2.046 1.79zm1.818-2.331h.687v.79h.019a1.64 1.64 0 0 1 1.543-.909v.74c-.687.04-1.525.5-1.525 1.611v3.24h-.726v-5.472z"/><path fill="#52ADD7" stroke="#52ADD7" stroke-miterlimit="10" stroke-width="2" d="M156.099 18.66c-1.607-4.698-4.918-8.48-9.32-10.645s-9.368-2.458-13.987-.82-8.332 5.005-10.459 9.486a18.8 18.8 0 0 0-1.818 8.797h.793a18 18 0 0 1 1.738-8.448c2.035-4.287 5.589-7.508 10.008-9.074 1.886-.67 3.831-1 5.771-1 2.603 0 5.195.6 7.608 1.786 4.212 2.07 7.378 5.688 8.915 10.185 3.177 9.28-1.659 19.46-10.778 22.69a17.1 17.1 0 0 1-11.273.09l-.251.766a17.85 17.85 0 0 0 11.783-.092c9.534-3.38 14.589-14.02 11.27-23.72Z"/><path fill="#52ADD7" d="M157.674 18.101c-1.755-5.129-5.364-9.252-10.169-11.616-4.801-2.364-10.221-2.681-15.26-.895-8.453 2.996-13.675 11.226-13.392 19.886h.264c-.283-8.55 4.87-16.675 13.215-19.633 4.971-1.762 10.319-1.447 15.06.884 4.738 2.332 8.303 6.404 10.033 11.463 3.573 10.446-1.868 21.9-12.131 25.539a19.3 19.3 0 0 1-12.745.067l-.074.255a19.6 19.6 0 0 0 6.352 1.063 19.5 19.5 0 0 0 6.551-1.132c10.401-3.685 15.916-15.295 12.296-25.881"/><path fill="#52ADD7" d="M132.193 5.832a.4.4 0 0 1-.375-.272L130.1.536a.406.406 0 0 1 .243-.514.395.395 0 0 1 .505.248l1.718 5.024a.406.406 0 0 1-.373.538m5.181 14.88a.13.13 0 0 1-.125-.091l-3.747-10.957a.14.14 0 0 1 .082-.172.134.134 0 0 1 .169.083l3.747 10.957a.137.137 0 0 1-.081.172.2.2 0 0 1-.045.008m17.317-8.202a.4.4 0 0 1-.311-.154.41.41 0 0 1 .066-.567l4.016-3.236a.39.39 0 0 1 .558.067.41.41 0 0 1-.066.568l-4.017 3.235a.4.4 0 0 1-.246.086m-12.393 9.715a.13.13 0 0 1-.103-.052.137.137 0 0 1 .021-.188l8.942-7.202a.13.13 0 0 1 .185.021.137.137 0 0 1-.021.189l-8.942 7.202a.13.13 0 0 1-.082.03m17.313 17.748a.38.38 0 0 1-.233-.078l-4.252-3.142a.41.41 0 0 1-.087-.565c.13-.18.375-.22.555-.088l4.252 3.141a.41.41 0 0 1 .087.565.4.4 0 0 1-.322.166m-7.763-6.005a.12.12 0 0 1-.077-.027l-9.241-6.829a.14.14 0 0 1-.029-.188.133.133 0 0 1 .185-.03l9.241 6.83a.137.137 0 0 1 .029.187.13.13 0 0 1-.108.057m-20.551 15.881a.402.402 0 0 1-.378-.522l1.524-5.059a.393.393 0 0 1 .495-.266c.208.065.327.29.261.503l-1.525 5.059a.394.394 0 0 1-.377.285m2.811-9.601q-.02 0-.04-.006a.135.135 0 0 1-.087-.166l3.343-11.092c.021-.07.095-.113.164-.088a.135.135 0 0 1 .087.166l-3.343 11.092a.13.13 0 0 1-.124.094M113.441 25.43a.4.4 0 0 1-.396-.401.4.4 0 0 1 .394-.406l5.25-.035h.003a.4.4 0 0 1 .396.4.4.4 0 0 1-.393.407zs.003 0 0 0m9.592-.331a.134.134 0 0 1-.132-.135c0-.075.059-.134.132-.134l11.485-.073c.071 0 .132.06.132.135a.13.13 0 0 1-.132.134zq.004 0 0 0m16.085 2.415a2.6 2.6 0 0 1-1.078-.237 2.64 2.64 0 0 1-1.374-1.487 2.7 2.7 0 0 1 .063-2.041 2.63 2.63 0 0 1 1.462-1.399 2.56 2.56 0 0 1 2.005.064c.637.294 1.126.82 1.374 1.488.249.667.225 1.39-.063 2.041a2.63 2.63 0 0 1-1.461 1.399 2.6 2.6 0 0 1-.928.172m.003-4.53q-.33 0-.648.122c-.943.363-1.419 1.439-1.062 2.399.172.465.513.833.957 1.038.444.204.94.22 1.398.046a1.83 1.83 0 0 0 1.02-.974c.2-.452.216-.957.045-1.423a1.83 1.83 0 0 0-.957-1.038 1.8 1.8 0 0 0-.753-.17"/></svg>